<svg width="19" height="14" viewBox="0 0 19 14" fill="none" xmlns="http://www.w3.org/2000/svg">
<path d="M17.7 6.76342C17.3 3.1177 13.7 0.714844 9.4 0.714844C5.1 0.714844 1.5 3.1177 1.1 6.84627C0.5 6.84627 0 7.34342 0 7.84056V11.9834C0 12.6463 0.6 13.1434 1.3 13.1434H4C4.2 13.4748 4.8 13.972 5.2 13.972C5.8 13.972 6 13.1434 6 12.6463V7.1777C6 6.76342 5.8 5.85199 5.2 5.85199C4.8 5.85199 4.2 6.51484 4 6.76342H2.9C3.3 3.86342 6.1 2.12342 9.4 2.12342C12.7 2.12342 15.6 3.86342 15.9 6.76342H15C15 6.51484 14.3 5.85199 13.9 5.85199C13.3 5.85199 13 6.68056 13 7.1777V12.6463C13 13.0606 13.3 13.972 13.9 13.972C14.3 13.972 15 13.4748 15.1 13.1434H17.7C18.4 13.1434 19 12.6463 19 12.0663V7.92342C19 7.26056 18.4 6.84627 17.7 6.76342ZM3 7.7577V8.58627L1 9.66342V7.7577H3ZM18 8.50342L16 9.58056V7.7577H18V8.50342ZM11.6 8.75199L10 9.16627V6.0177C10 5.93484 9.9 5.85199 9.8 5.85199C9.7 5.85199 9.6 5.85199 9.6 5.93484L7.2 10.6577V10.8234C7.3 10.9063 7.3 10.9063 7.4 10.9063L9 10.6577V13.8063C9 13.8891 8.8 13.972 8.9 13.972H9.2C9.3 13.972 9.4 13.972 9.4 13.8891L11.8 9.00056V8.83484C11.7 8.75199 11.6 8.75199 11.6 8.75199Z" fill="#7C5CFF"/>
</svg>
