<svg width="85" height="20" viewBox="0 0 85 20" fill="none" xmlns="http://www.w3.org/2000/svg">
<path d="M0.517045 19V1.54545H12.2784V4.58807H4.20739V8.74716H11.6733V11.7898H4.20739V15.9574H12.3125V19H0.517045ZM29.8118 1.54545V19H26.6243L19.0305 8.0142H18.9027V19H15.2124V1.54545H18.451L25.9851 12.5227H26.1385V1.54545H29.8118ZM36.5511 1.54545V19H32.8608V1.54545H36.5511Z" fill="#00CF35"/>
<path d="M44.946 7V5.15909C44.946 4.63636 45.0483 4.10227 45.2528 3.55682C45.4574 3.01136 45.7273 2.49716 46.0625 2.0142C46.3977 1.53125 46.7614 1.12784 47.1534 0.803977L48.7557 1.75C48.4375 2.25 48.1761 2.77273 47.9716 3.31818C47.7727 3.86364 47.6733 4.47159 47.6733 5.14204V7H44.946ZM54.517 1.54545V19H50.8864V1.54545H54.517ZM61.1584 19.2472C60.3232 19.2472 59.5788 19.1023 58.9254 18.8125C58.272 18.517 57.755 18.0824 57.3743 17.5085C56.9993 16.929 56.8118 16.2074 56.8118 15.3438C56.8118 14.6165 56.9453 14.0057 57.2124 13.5114C57.4794 13.017 57.843 12.6193 58.3033 12.3182C58.7635 12.017 59.2862 11.7898 59.8714 11.6364C60.4624 11.483 61.0817 11.375 61.7294 11.3125C62.4908 11.233 63.1044 11.1591 63.5703 11.0909C64.0362 11.017 64.3743 10.9091 64.5845 10.767C64.7947 10.625 64.8999 10.4148 64.8999 10.1364V10.0852C64.8999 9.54545 64.7294 9.12784 64.3885 8.83239C64.0533 8.53693 63.576 8.3892 62.9567 8.3892C62.3033 8.3892 61.7834 8.53409 61.397 8.82386C61.0107 9.10795 60.755 9.46591 60.63 9.89773L57.272 9.625C57.4425 8.82955 57.7777 8.14205 58.2777 7.5625C58.7777 6.97727 59.4226 6.52841 60.2124 6.21591C61.0078 5.89773 61.9283 5.73864 62.9737 5.73864C63.701 5.73864 64.397 5.82386 65.0618 5.99432C65.7322 6.16477 66.326 6.42898 66.843 6.78693C67.3658 7.14489 67.7777 7.60511 68.0788 8.16761C68.38 8.72443 68.5305 9.39205 68.5305 10.1705V19H65.0874V17.1847H64.9851C64.7749 17.5938 64.4936 17.9545 64.1413 18.267C63.7891 18.5739 63.3658 18.8153 62.8714 18.9915C62.3771 19.1619 61.8061 19.2472 61.1584 19.2472ZM62.1982 16.7415C62.7322 16.7415 63.2038 16.6364 63.6129 16.4261C64.022 16.2102 64.343 15.9205 64.576 15.5568C64.8089 15.1932 64.9254 14.7812 64.9254 14.321V12.9318C64.8118 13.0057 64.6555 13.0739 64.4567 13.1364C64.2635 13.1932 64.0447 13.2472 63.8004 13.2983C63.5561 13.3437 63.3118 13.3864 63.0675 13.4261C62.8232 13.4602 62.6016 13.4915 62.4027 13.5199C61.9766 13.5824 61.6044 13.6818 61.2862 13.8182C60.968 13.9545 60.7209 14.1392 60.5447 14.3722C60.3686 14.5994 60.2805 14.8835 60.2805 15.2244C60.2805 15.7188 60.4595 16.0966 60.8175 16.358C61.1811 16.6136 61.6413 16.7415 62.1982 16.7415ZM71.4155 19V1.54545H75.0462V8.10795H75.157C75.3161 7.75568 75.5462 7.39773 75.8473 7.03409C76.1541 6.66477 76.5518 6.35795 77.0405 6.11364C77.5348 5.86364 78.1484 5.73864 78.8814 5.73864C79.8359 5.73864 80.7166 5.98864 81.5234 6.48864C82.3303 6.98295 82.9751 7.73011 83.4581 8.73011C83.9411 9.72443 84.1825 10.9716 84.1825 12.4716C84.1825 13.9318 83.9467 15.1648 83.4751 16.1705C83.0092 17.1705 82.3729 17.929 81.5661 18.446C80.7649 18.9574 79.8672 19.2131 78.8729 19.2131C78.1683 19.2131 77.5689 19.0966 77.0746 18.8636C76.5859 18.6307 76.1854 18.3381 75.8729 17.9858C75.5604 17.6278 75.3217 17.267 75.157 16.9034H74.995V19H71.4155ZM74.9695 12.4545C74.9695 13.233 75.0774 13.9119 75.2933 14.4915C75.5092 15.071 75.8217 15.5227 76.2308 15.8466C76.6399 16.1648 77.1371 16.3239 77.7223 16.3239C78.3132 16.3239 78.8132 16.1619 79.2223 15.8381C79.6314 15.5085 79.9411 15.054 80.1513 14.4744C80.3672 13.8892 80.4751 13.2159 80.4751 12.4545C80.4751 11.6989 80.37 11.0341 80.1598 10.4602C79.9496 9.88636 79.6399 9.4375 79.2308 9.11364C78.8217 8.78977 78.3189 8.62784 77.7223 8.62784C77.1314 8.62784 76.6314 8.78409 76.2223 9.09659C75.8189 9.40909 75.5092 9.85227 75.2933 10.4261C75.0774 11 74.9695 11.6761 74.9695 12.4545Z" fill="white"/>
</svg>
