<svg width="29" height="24" viewBox="0 0 29 24" fill="none" xmlns="http://www.w3.org/2000/svg">
<path d="M14.5998 22C12.9832 22 11.464 21.7373 10.0422 21.212C8.62037 20.6873 7.38357 19.975 6.33181 19.075C5.28005 18.175 4.44759 17.1167 3.83445 15.9C3.22053 14.6833 2.91357 13.3833 2.91357 12C2.91357 10.6167 3.22053 9.31667 3.83445 8.1C4.44759 6.88333 5.28005 5.825 6.33181 4.925C7.38357 4.025 8.62037 3.31233 10.0422 2.787C11.464 2.26233 12.9832 2 14.5998 2C17.4435 2 19.9315 2.76233 22.0639 4.287C24.197 5.81233 25.5265 7.725 26.0524 10.025H23.6567C23.2866 8.80833 22.6197 7.72067 21.656 6.762C20.6915 5.804 19.5081 5.08333 18.1057 4.6V5C18.1057 5.55 17.8771 6.02067 17.4197 6.412C16.9616 6.804 16.4112 7 15.7685 7H13.4312V9C13.4312 9.28333 13.3194 9.52067 13.0958 9.712C12.8714 9.904 12.5937 10 12.2626 10H9.92534V12H12.2626V15H11.094L5.48455 10.2C5.42612 10.5 5.37237 10.8 5.32328 11.1C5.27498 11.4 5.25083 11.7 5.25083 12C5.25083 14.1833 6.14678 16.0583 7.93867 17.625C9.73057 19.1917 11.951 19.9833 14.5998 20V22ZM25.2344 21.5L21.4947 18.3C21.0857 18.5 20.6475 18.6667 20.18 18.8C19.7126 18.9333 19.2159 19 18.69 19C17.2293 19 15.9874 18.5627 14.9645 17.688C13.9423 16.8127 13.4312 15.75 13.4312 14.5C13.4312 13.25 13.9423 12.1873 14.9645 11.312C15.9874 10.4373 17.2293 10 18.69 10C20.1508 10 21.3927 10.4373 22.4156 11.312C23.4378 12.1873 23.9489 13.25 23.9489 14.5C23.9489 14.95 23.871 15.375 23.7151 15.775C23.5593 16.175 23.3646 16.55 23.1308 16.9L26.8704 20.1L25.2344 21.5ZM18.69 17C19.5081 17 20.1995 16.7583 20.7644 16.275C21.3292 15.7917 21.6116 15.2 21.6116 14.5C21.6116 13.8 21.3292 13.2083 20.7644 12.725C20.1995 12.2417 19.5081 12 18.69 12C17.872 12 17.1806 12.2417 16.6157 12.725C16.0509 13.2083 15.7685 13.8 15.7685 14.5C15.7685 15.2 16.0509 15.7917 16.6157 16.275C17.1806 16.7583 17.872 17 18.69 17Z" fill="#F8F8F8"/>
</svg>
