<svg width="32" height="31" viewBox="0 0 32 31" fill="none" xmlns="http://www.w3.org/2000/svg">
<path d="M2.39324 14.8969V25.4896H7.44421L7.69926 25.5163C12.3885 26.4872 15.4958 27.1872 17.0444 27.6209C19.1014 28.1966 19.8683 28.3372 21.2635 28.4201C22.3071 28.4838 23.4923 28.1271 24.0324 27.6387C24.3308 27.3693 24.5542 26.8157 24.6425 25.9573C24.6608 25.7773 24.7333 25.605 24.8524 25.4584C24.9714 25.3118 25.1327 25.1963 25.3193 25.124C25.7344 24.9642 26.0794 24.7037 26.3678 24.3248C26.6346 23.9785 26.8079 23.3332 26.8396 22.3993C26.8452 22.2276 26.9 22.06 26.9989 21.9124C27.0978 21.7647 27.2374 21.6419 27.4047 21.5556C28.3749 21.0569 28.855 20.4944 28.955 19.8343C29.065 19.1047 28.7983 18.2832 28.0998 17.3478C27.936 17.1285 27.8749 16.861 27.9297 16.6023C27.9845 16.3436 28.1508 16.1141 28.3932 15.9625C29.0617 15.5451 29.4284 14.965 29.5201 14.142C29.6668 12.8307 28.725 11.8613 26.5929 11.6674C24.694 11.5007 22.7767 11.6426 20.9351 12.0863C20.7262 12.1347 20.5061 12.1292 20.3006 12.0704C20.0951 12.0115 19.9128 11.9018 19.7751 11.7541C19.6375 11.6064 19.5502 11.4269 19.5236 11.2366C19.497 11.0464 19.5321 10.8533 19.6249 10.6802C20.4584 9.11431 20.9218 7.82223 21.0301 6.82171C21.1718 5.4941 20.8268 4.53207 20.02 3.73876C19.4082 3.13786 18.4296 2.79449 18.0629 2.86553C17.5795 2.95729 17.2644 3.20594 16.8543 4.07621C16.6126 4.59127 16.4959 5.02937 16.2959 6.05208C16.1042 7.023 15.9992 7.46109 15.7808 8.03535C15.1223 9.7759 13.507 11.5801 11.3383 12.8248C9.81832 13.6961 8.17101 14.3784 6.44235 14.8525C6.33436 14.882 6.22197 14.897 6.10895 14.8969H2.39324ZM2.32323 27.5069C1.78479 27.5202 1.30137 27.4137 0.89629 27.1621C0.379525 26.8409 0.136145 26.3347 0.131144 25.7516L0.136145 14.9132C0.0794675 14.3359 0.271171 13.8061 0.724591 13.4124C1.14967 13.0424 1.70478 12.8677 2.29156 12.8796H5.93392C7.4073 12.4627 8.812 11.8745 10.1114 11.1301C11.8584 10.1267 13.1453 8.68806 13.6371 7.39153C13.8054 6.94455 13.8954 6.57454 14.0655 5.70427C14.2955 4.53651 14.4389 3.99333 14.7689 3.29474C15.4524 1.84133 16.3492 1.13091 17.5862 0.892619C18.8031 0.658771 20.5751 1.28187 21.6953 2.38303C22.9372 3.6026 23.4856 5.12853 23.2822 7.01412C23.1956 7.82519 22.9422 8.73246 22.5254 9.74333C23.9487 9.55918 25.392 9.53134 26.8229 9.66045C30.1686 9.96386 32.0473 11.8983 31.7739 14.3433C31.6538 15.3971 31.2238 16.2926 30.492 16.9956C31.1071 18.0479 31.3521 19.0884 31.1988 20.1037C31.0221 21.2729 30.2886 22.2468 29.0683 23.0031C28.9733 24.0288 28.7083 24.8473 28.2382 25.46C27.8678 25.9551 27.3845 26.3756 26.8196 26.6944C26.6396 27.7067 26.2611 28.4986 25.6427 29.0551C24.6175 29.9816 22.7855 30.5336 21.1118 30.433C19.5232 30.3383 18.583 30.1666 16.3659 29.545C14.904 29.135 11.8767 28.4542 7.31419 27.5069H2.32323ZM5.15877 14.4366C5.15833 14.3042 5.18733 14.173 5.2441 14.0505C5.30087 13.9281 5.3843 13.8168 5.4896 13.723C5.5949 13.6292 5.72001 13.5548 5.85776 13.5041C5.99551 13.4533 6.14318 13.4272 6.29232 13.4272C6.44118 13.4276 6.5885 13.454 6.72586 13.5049C6.86322 13.5559 6.98794 13.6303 7.09289 13.7241C7.19784 13.8178 7.28097 13.929 7.33753 14.0512C7.39409 14.1735 7.42298 14.3044 7.42254 14.4366V25.8004C7.42276 25.9326 7.39366 26.0635 7.33689 26.1857C7.28013 26.3079 7.19681 26.4189 7.09171 26.5125C6.9866 26.6061 6.86177 26.6804 6.72432 26.7312C6.58688 26.7819 6.43952 26.8081 6.29066 26.8083C6.1418 26.8081 5.99444 26.7819 5.85699 26.7312C5.71955 26.6804 5.59471 26.6061 5.4896 26.5125C5.3845 26.4189 5.30119 26.3079 5.24442 26.1857C5.18766 26.0635 5.15855 25.9326 5.15877 25.8004V14.4366Z" fill="#F8F8F8"/>
</svg>
