<svg width="17" height="18" viewBox="0 0 17 18" fill="none" xmlns="http://www.w3.org/2000/svg">
<path d="M9.9 5.81484C9.7 6.11484 9.4 7.21484 9.3 8.41484L10.4 8.31484C11.1 8.21484 11.7 8.01484 11.9 7.81484C12.5 7.21484 12.5 6.41484 11.9 5.81484C11.3 5.31484 10.5 5.31484 9.9 5.81484ZM8.5 0.714844C3.8 0.714844 0 4.51484 0 9.21484C0 13.9148 3.8 17.7148 8.5 17.7148C13.2 17.7148 17 13.9148 17 9.21484C17 4.51484 13.2 0.714844 8.5 0.714844ZM12.9 8.91484C12.4 9.41484 11.4 9.71484 10.4 9.81484L9.2 10.0148C9.1 11.3148 8.8 12.9148 8.2 13.6148C7.1 14.7148 5.2 14.8148 4.1 13.6148C3 12.5148 3 10.6148 4.1 9.51484C4.6 9.01484 5.6 8.71484 6.7 8.61484V10.1148C5.5 10.4148 5.2 10.6148 5.1 10.6148C4.5 11.2148 4.5 12.0148 5.1 12.6148C5.6 13.1148 6.5 13.1148 7.1 12.6148C7.3 12.4148 7.6 11.5148 7.7 10.1148L7.8 9.21484C7.8 7.91484 8 5.61484 8.8 4.81484C9.9 3.71484 11.8 3.61484 12.9 4.81484C14.1 5.91484 14.1 7.71484 12.9 8.91484Z" fill="#00CF35"/>
</svg>
