<svg width="380" height="85" viewBox="0 0 380 85" fill="none" xmlns="http://www.w3.org/2000/svg">
<path d="M4.59091 66V19.4545H34.8636V26.5227H13.0227V39.1591H33.2955V46.2273H13.0227V58.9318H35.0455V66H4.59091ZM81.7159 19.4545V66H74.2159L52.2841 34.2955H51.8977V66H43.4659V19.4545H51.0114L72.9205 51.1818H73.3295V19.4545H81.7159ZM99.3352 19.4545V66H90.9034V19.4545H99.3352ZM115.08 19.4545V24.0909C115.08 25.4242 114.822 26.8106 114.307 28.25C113.807 29.6742 113.117 31.0379 112.239 32.3409C111.36 33.6288 110.36 34.7348 109.239 35.6591L105.42 33.1818C106.254 31.9242 106.981 30.5682 107.602 29.1136C108.223 27.6439 108.534 25.9848 108.534 24.1364V19.4545H115.08Z" fill="#00CF35"/>
<path d="M138.028 66V19.4545H146.46V58.9318H166.96V66H138.028ZM182.006 66H173.006L189.392 19.4545H199.801L216.21 66H207.21L194.778 29H194.415L182.006 66ZM182.301 47.75H206.847V54.5227H182.301V47.75ZM222.341 66V19.4545H240.159C243.523 19.4545 246.318 19.9848 248.545 21.0455C250.788 22.0909 252.462 23.5227 253.568 25.3409C254.689 27.1591 255.25 29.2197 255.25 31.5227C255.25 33.4167 254.886 35.0379 254.159 36.3864C253.432 37.7197 252.455 38.803 251.227 39.6364C250 40.4697 248.629 41.0682 247.114 41.4318V41.8864C248.765 41.9773 250.348 42.4848 251.864 43.4091C253.394 44.3182 254.644 45.6061 255.614 47.2727C256.583 48.9394 257.068 50.9545 257.068 53.3182C257.068 55.7273 256.485 57.8939 255.318 59.8182C254.152 61.7273 252.394 63.2348 250.045 64.3409C247.697 65.447 244.742 66 241.182 66H222.341ZM230.773 58.9545H239.841C242.902 58.9545 245.106 58.3712 246.455 57.2045C247.818 56.0227 248.5 54.5076 248.5 52.6591C248.5 51.2803 248.159 50.0379 247.477 48.9318C246.795 47.8106 245.826 46.9318 244.568 46.2955C243.311 45.6439 241.811 45.3182 240.068 45.3182H230.773V58.9545ZM230.773 39.25H239.114C240.568 39.25 241.879 38.9848 243.045 38.4545C244.212 37.9091 245.129 37.1439 245.795 36.1591C246.477 35.1591 246.818 33.9773 246.818 32.6136C246.818 30.8106 246.182 29.3258 244.909 28.1591C243.652 26.9924 241.78 26.4091 239.295 26.4091H230.773V39.25Z" fill="white"/>
<line x1="295.658" y1="16.9381" x2="325.575" y2="37.2818" stroke="black"/>
<path d="M295.377 31.1143L325.294 41.2861" stroke="#00CF35" stroke-width="7"/>
<line x1="345.488" y1="8.1433" x2="326.659" y2="39.0366" stroke="#00CF35" stroke-width="6"/>
<rect x="336.064" width="13.1636" height="13.1636" rx="6.58178" fill="white"/>
<rect x="287" y="23.335" width="13.1636" height="13.1636" rx="6.58178" fill="white"/>
<rect x="319.311" y="31.1143" width="13.1636" height="13.1636" rx="6.58178" fill="white"/>
<line x1="363.517" y1="50.2106" x2="328.355" y2="41.6922" stroke="black"/>
<path d="M363.914 49.2451L328.752 40.7268" stroke="#00CF35" stroke-width="7"/>
<line x1="319.967" y1="75.9739" x2="326.724" y2="40.4317" stroke="#00CF35" stroke-width="6"/>
<rect x="331.653" y="80.2812" width="13.1636" height="13.1636" rx="6.58178" transform="rotate(159.403 331.653 80.2812)" fill="white"/>
<rect x="336.39" y="45.2627" width="13.1636" height="13.1636" rx="6.58178" transform="rotate(159.403 336.39 45.2627)" fill="white"/>
<rect x="375.683" y="52.8672" width="13.1636" height="13.1636" rx="6.58178" transform="rotate(159.403 375.683 52.8672)" fill="white"/>
</svg>
