<svg width="36" height="26" viewBox="0 0 36 26" fill="none" xmlns="http://www.w3.org/2000/svg">
<path d="M11.7471 7.75V12.75L0.666992 6.5L11.7471 0.25V5.25H20.9804C24.8986 5.25 28.6563 6.30357 31.4268 8.17893C34.1974 10.0543 35.7539 12.5978 35.7539 15.25C35.7539 17.9022 34.1974 20.4457 31.4268 22.3211C28.6563 24.1964 24.8986 25.25 20.9804 25.25H4.36035V22.75H20.9804C23.9191 22.75 26.7373 21.9598 28.8152 20.5533C30.8932 19.1468 32.0605 17.2391 32.0605 15.25C32.0605 13.2609 30.8932 11.3532 28.8152 9.9467C26.7373 8.54018 23.9191 7.75 20.9804 7.75H11.7471Z" fill="#00B8FF"/>
</svg>
