<svg width="27" height="32" viewBox="0 0 27 32" fill="none" xmlns="http://www.w3.org/2000/svg">
<path d="M26.625 7.4795C26.625 10.2941 24.3354 12.5837 21.5208 12.5837C18.7063 12.5837 16.4167 10.2941 16.4167 7.4795C16.4167 4.66492 18.7063 2.37533 21.5208 2.37533C24.3354 2.37533 26.625 4.66492 26.625 7.4795ZM23.7083 15.1941C22.9792 15.3837 22.25 15.5003 21.5208 15.5003C19.3948 15.4965 17.3569 14.6502 15.8535 13.1468C14.3501 11.6435 13.5039 9.60557 13.5 7.4795C13.5 5.33575 14.3458 3.39617 15.6875 1.95242C15.4228 1.628 15.0891 1.36671 14.7107 1.18758C14.3323 1.00846 13.9187 0.916023 13.5 0.917C11.8958 0.917 10.5833 2.2295 10.5833 3.83367V4.25658C6.25208 5.53992 3.29167 9.52117 3.29167 14.042V22.792L0.375 25.7087V27.167H26.625V25.7087L23.7083 22.792V15.1941ZM13.5 31.542C15.1188 31.542 16.4167 30.2441 16.4167 28.6253H10.5833C10.5833 29.3989 10.8906 30.1407 11.4376 30.6877C11.9846 31.2347 12.7265 31.542 13.5 31.542Z" fill="white"/>
</svg>
