<svg width="26" height="25" viewBox="0 0 26 25" fill="none" xmlns="http://www.w3.org/2000/svg">
<path d="M20.9872 24.9507C19.8296 24.9507 18.8456 24.591 18.0353 23.8715C17.2249 23.1521 16.8198 22.2784 16.8198 21.2506C16.8198 21.1067 16.8313 20.9575 16.8545 20.8029C16.8776 20.6483 16.9124 20.5098 16.9587 20.3873L7.16513 15.3304C6.77154 15.6387 6.33164 15.8805 5.84544 16.0556C5.35923 16.2308 4.84988 16.3179 4.31737 16.3171C3.15974 16.3171 2.17575 15.9574 1.36541 15.2379C0.555073 14.5184 0.149902 13.6448 0.149902 12.617C0.149902 11.5892 0.555073 10.7155 1.36541 9.99605C2.17575 9.27658 3.15974 8.91684 4.31737 8.91684C4.84988 8.91684 5.35923 9.00441 5.84544 9.17955C6.33164 9.35469 6.77154 9.59602 7.16513 9.90355L16.9587 4.8467C16.9124 4.72336 16.8776 4.58481 16.8545 4.43105C16.8313 4.27729 16.8198 4.12805 16.8198 3.98333C16.8198 2.95552 17.2249 2.08188 18.0353 1.36241C18.8456 0.642938 19.8296 0.283203 20.9872 0.283203C22.1449 0.283203 23.1288 0.642938 23.9392 1.36241C24.7495 2.08188 25.1547 2.95552 25.1547 3.98333C25.1547 5.01115 24.7495 5.88479 23.9392 6.60426C23.1288 7.32373 22.1449 7.68347 20.9872 7.68347C20.4547 7.68347 19.9454 7.59631 19.4592 7.42199C18.9729 7.24767 18.5331 7.00593 18.1395 6.69676L8.34591 11.7536C8.39222 11.8769 8.42695 12.0159 8.4501 12.1705C8.47326 12.3251 8.48483 12.4739 8.48483 12.617C8.48483 12.7609 8.47326 12.9101 8.4501 13.0647C8.42695 13.2193 8.39222 13.3578 8.34591 13.4803L18.1395 18.5372C18.5331 18.2288 18.9729 17.9875 19.4592 17.8132C19.9454 17.6389 20.4547 17.5513 20.9872 17.5505C22.1449 17.5505 23.1288 17.9102 23.9392 18.6297C24.7495 19.3492 25.1547 20.2228 25.1547 21.2506C25.1547 22.2784 24.7495 23.1521 23.9392 23.8715C23.1288 24.591 22.1449 24.9507 20.9872 24.9507ZM20.9872 5.21671C21.3808 5.21671 21.711 5.09831 21.9777 4.8615C22.2444 4.62469 22.3773 4.33197 22.3764 3.98333C22.3764 3.63388 22.243 3.34075 21.9763 3.10394C21.7096 2.86713 21.3799 2.74914 20.9872 2.74996C20.5936 2.74996 20.2635 2.86836 19.9968 3.10517C19.73 3.34198 19.5971 3.6347 19.5981 3.98333C19.5981 4.33279 19.7314 4.62592 19.9981 4.86273C20.2649 5.09954 20.5946 5.21753 20.9872 5.21671ZM4.31737 13.8504C4.71096 13.8504 5.04112 13.7319 5.30783 13.4951C5.57455 13.2583 5.70745 12.9656 5.70652 12.617C5.70652 12.2675 5.57316 11.9744 5.30644 11.7376C5.03973 11.5008 4.71003 11.3828 4.31737 11.3836C3.92377 11.3836 3.59362 11.502 3.3269 11.7388C3.06018 11.9756 2.92729 12.2683 2.92821 12.617C2.92821 12.9664 3.06157 13.2596 3.32829 13.4964C3.59501 13.7332 3.9247 13.8512 4.31737 13.8504ZM20.9872 22.484C21.3808 22.484 21.711 22.3656 21.9777 22.1288C22.2444 21.892 22.3773 21.5993 22.3764 21.2506C22.3764 20.9012 22.243 20.608 21.9763 20.3712C21.7096 20.1344 21.3799 20.0164 20.9872 20.0172C20.5936 20.0172 20.2635 20.1356 19.9968 20.3725C19.73 20.6093 19.5971 20.902 19.5981 21.2506C19.5981 21.6001 19.7314 21.8932 19.9981 22.13C20.2649 22.3668 20.5946 22.4848 20.9872 22.484Z" fill="#F8F8F8"/>
</svg>
