<svg width="15" height="15" viewBox="0 0 15 15" fill="none" xmlns="http://www.w3.org/2000/svg">
<path d="M14.9813 0.78125H12.2813L11.6813 -0.21875H5.68135L5.08135 0.78125H2.78135C1.48135 0.78125 0.381348 1.78125 0.381348 3.08125V12.3813C0.381348 13.6813 1.48135 14.7812 2.78135 14.7812H14.9813C16.2813 14.7812 17.3813 13.6813 17.3813 12.3813V3.08125C17.3813 1.78125 16.2813 0.78125 14.9813 0.78125ZM8.68135 12.8813C5.78135 12.8813 3.48135 10.5813 3.48135 7.78125C3.48135 4.98125 5.78135 2.68125 8.68135 2.68125C11.5813 2.68125 13.8813 4.98125 13.8813 7.78125C13.8813 10.5813 11.5813 12.8813 8.68135 12.8813ZM14.5813 4.58125C13.9813 4.58125 13.4813 4.08125 13.4813 3.48125C13.4813 2.88125 13.9813 2.38125 14.5813 2.38125C15.1813 2.38125 15.6813 2.88125 15.6813 3.48125C15.6813 4.08125 15.1813 4.58125 14.5813 4.58125ZM4.58135 7.68125C4.58135 8.88125 5.08135 9.88125 5.88135 10.6812C5.88135 10.4812 5.88135 10.2812 5.78135 10.0813C5.78135 7.88125 7.58135 6.08125 9.88135 6.08125C10.9813 6.08125 11.8813 6.48125 12.6813 7.18125C12.3813 5.18125 10.6813 3.78125 8.68135 3.78125C6.48135 3.68125 4.58135 5.48125 4.58135 7.68125Z" fill="#FF4930"/>
</svg>
