<svg width="27" height="18" viewBox="0 0 27 18" fill="none" xmlns="http://www.w3.org/2000/svg">
<path d="M4.07519 0.25C3.09565 0.25 2.15623 0.513392 1.46359 0.982233C0.770956 1.45107 0.381836 2.08696 0.381836 2.75V15.25C0.381836 15.913 0.770956 16.5489 1.46359 17.0178C2.15623 17.4866 3.09565 17.75 4.07519 17.75H22.542C23.5215 17.75 24.4609 17.4866 25.1536 17.0178C25.8462 16.5489 26.2353 15.913 26.2353 15.25V2.75C26.2353 2.08696 25.8462 1.45107 25.1536 0.982233C24.4609 0.513392 23.5215 0.25 22.542 0.25H4.07519ZM11.4619 13.2675L6.46295 9.88375L9.07415 8.11625L11.4619 9.7325L18.4664 4.99125L21.0776 6.75875L11.4619 13.2675Z" fill="#01CF35"/>
</svg>
