<svg width="34" height="30" viewBox="0 0 34 30" fill="none" xmlns="http://www.w3.org/2000/svg">
<path d="M16.9997 0C7.83301 0 0.333008 6 0.333008 13.3333C0.333008 16.8333 1.99967 20.1667 4.99967 22.5C4.99967 23.5 4.33301 26.1667 0.333008 30C0.333008 30 6.16634 30 11.1663 25.8333C12.9997 26.3333 14.9997 26.6667 16.9997 26.6667C26.1663 26.6667 33.6663 20.6667 33.6663 13.3333C33.6663 6 26.1663 0 16.9997 0ZM18.6663 20H15.333V16.6667H18.6663V20ZM21.6663 11.6667C21.1663 12.3333 20.4997 12.6667 19.833 13C19.333 13.3333 19.1663 13.5 18.9997 13.8333C18.6663 14.1667 18.6663 14.5 18.6663 15H15.333C15.333 14.1667 15.4997 13.6667 15.833 13.1667C16.1663 12.8333 16.833 12.3333 17.6663 11.8333C18.1663 11.6667 18.4997 11.3333 18.6663 11C18.833 10.6667 18.9997 10.1667 18.9997 9.83333C18.9997 9.33333 18.833 9 18.4997 8.66667C18.1663 8.33333 17.6663 8.16667 17.1663 8.16667C16.6663 8.16667 16.333 8.33333 15.9997 8.5C15.6663 8.66667 15.4997 9 15.4997 9.5H12.1663C12.333 8.33333 12.833 7.33333 13.6663 6.66667C14.4997 6 15.6663 5.83333 17.1663 5.83333C18.6663 5.83333 19.9997 6.16667 20.833 6.83333C21.6663 7.5 22.1663 8.5 22.1663 9.66667C22.333 10.3333 22.1663 11 21.6663 11.6667Z" fill="#00B8FF"/>
</svg>
