<svg width="17" height="16" viewBox="0 0 17 16" fill="none" xmlns="http://www.w3.org/2000/svg">
<path d="M16.3187 8.44844C16.1187 8.34844 15.8187 8.44844 15.7187 8.54844L12.8187 10.7484C12.7187 10.8484 12.7187 10.8484 12.6187 10.8484V8.64844H0.618652V11.6484H2.61865V14.8484C2.61865 15.2484 2.91865 15.6484 3.41865 15.6484H11.8187C12.3187 15.6484 12.6187 15.2484 12.6187 14.8484V12.6484C12.6187 12.7484 12.7187 12.8484 12.8187 12.8484L15.7187 15.0484C15.9187 15.2484 16.1187 15.2484 16.3187 15.1484C16.5187 15.0484 16.6187 14.8484 16.6187 14.6484V9.04844C16.6187 8.84844 16.5187 8.54844 16.3187 8.44844ZM3.41865 7.54844C3.71865 7.54844 4.21865 7.64844 4.51865 7.64844H10.0187C10.3187 7.64844 10.8187 7.54844 11.0187 7.54844C12.6187 7.24844 13.8187 5.84844 13.8187 4.14844C13.8187 2.24844 12.2187 0.648438 10.3187 0.648438C9.11865 0.648438 7.91865 1.24844 7.31865 2.34844H7.21865C6.51865 1.24844 5.41865 0.648438 4.21865 0.648438C2.21865 0.648438 0.618652 2.24844 0.618652 4.14844C0.618652 5.84844 1.81865 7.14844 3.41865 7.54844ZM9.61865 4.84844C10.6187 4.84844 11.4187 4.04844 11.4187 3.04844V2.74844C11.8187 3.04844 12.0187 3.54844 12.0187 4.14844C12.0187 5.14844 11.2187 5.94844 10.2187 5.94844C9.31865 5.94844 8.61865 5.34844 8.41865 4.44844C8.71865 4.74844 9.11865 4.84844 9.61865 4.84844ZM3.41865 4.94844C4.41865 4.94844 5.21865 4.14844 5.21865 3.14844V2.84844C5.61865 3.04844 5.81865 3.54844 5.81865 4.14844C5.81865 5.14844 5.01865 5.94844 4.01865 5.94844C3.11865 5.94844 2.41865 5.34844 2.21865 4.44844C2.51865 4.74844 2.91865 4.94844 3.41865 4.94844Z" fill="#FF62CE"/>
</svg>
